<mxfile host="Electron" modified="2024-06-28T17:08:47.850Z" agent="Mozilla/5.0 (Windows NT 10.0; Win64; x64) AppleWebKit/537.36 (KHTML, like Gecko) draw.io/24.1.0 Chrome/120.0.6099.109 Electron/28.1.0 Safari/537.36" etag="wsRrvbztT5vk5DwLO_J4" version="24.1.0" type="device">
  <diagram name="Page-1" id="1IIoo3WY2XXjFLR92GBM">
    <mxGraphModel dx="830" dy="482" grid="1" gridSize="10" guides="1" tooltips="1" connect="1" arrows="1" fold="1" page="1" pageScale="1" pageWidth="583" pageHeight="827" math="0" shadow="0">
      <root>
        <mxCell id="0" />
        <mxCell id="1" parent="0" />
        <mxCell id="iqy052YHAr-xuEyLwhpA-31" value="" style="rounded=0;whiteSpace=wrap;html=1;" vertex="1" parent="1">
          <mxGeometry x="90" y="240" width="380" height="260" as="geometry" />
        </mxCell>
        <mxCell id="iqy052YHAr-xuEyLwhpA-36" value="" style="rounded=0;whiteSpace=wrap;html=1;fillColor=#dae8fc;strokeColor=#6c8ebf;" vertex="1" parent="1">
          <mxGeometry x="90" y="370" width="190" height="130" as="geometry" />
        </mxCell>
        <mxCell id="iqy052YHAr-xuEyLwhpA-35" value="" style="rounded=0;whiteSpace=wrap;html=1;fillColor=#f8cecc;strokeColor=#b85450;" vertex="1" parent="1">
          <mxGeometry x="280" y="370" width="190" height="130" as="geometry" />
        </mxCell>
        <mxCell id="iqy052YHAr-xuEyLwhpA-34" value="" style="rounded=0;whiteSpace=wrap;html=1;fillColor=#fff2cc;strokeColor=#d6b656;" vertex="1" parent="1">
          <mxGeometry x="280" y="240" width="190" height="130" as="geometry" />
        </mxCell>
        <mxCell id="iqy052YHAr-xuEyLwhpA-33" value="" style="rounded=0;whiteSpace=wrap;html=1;fillColor=#d5e8d4;strokeColor=#82b366;" vertex="1" parent="1">
          <mxGeometry x="90" y="240" width="190" height="130" as="geometry" />
        </mxCell>
        <mxCell id="iqy052YHAr-xuEyLwhpA-4" value="highLevel.h" style="text;html=1;align=center;verticalAlign=middle;whiteSpace=wrap;rounded=0;fontStyle=1" vertex="1" parent="1">
          <mxGeometry x="145" y="268.5" width="80" height="12" as="geometry" />
        </mxCell>
        <mxCell id="iqy052YHAr-xuEyLwhpA-6" value="&lt;font face=&quot;Lucida Console&quot;&gt;IMPLEMENTATION&lt;/font&gt;" style="text;html=1;align=center;verticalAlign=middle;whiteSpace=wrap;rounded=0;rotation=-90;" vertex="1" parent="1">
          <mxGeometry x="36" y="430" width="95" height="8" as="geometry" />
        </mxCell>
        <mxCell id="iqy052YHAr-xuEyLwhpA-7" value="&lt;font face=&quot;Lucida Console&quot;&gt;DECLARATION&lt;/font&gt;" style="text;html=1;align=center;verticalAlign=middle;whiteSpace=wrap;rounded=0;rotation=-90;" vertex="1" parent="1">
          <mxGeometry x="46" y="301" width="75" height="8" as="geometry" />
        </mxCell>
        <mxCell id="iqy052YHAr-xuEyLwhpA-8" value="highLevel.c" style="text;html=1;align=center;verticalAlign=middle;whiteSpace=wrap;rounded=0;fontStyle=1" vertex="1" parent="1">
          <mxGeometry x="145" y="396.5" width="80" height="12" as="geometry" />
        </mxCell>
        <mxCell id="iqy052YHAr-xuEyLwhpA-9" value="lowLevel.h" style="text;html=1;align=center;verticalAlign=middle;whiteSpace=wrap;rounded=0;fontStyle=1" vertex="1" parent="1">
          <mxGeometry x="335" y="269" width="80" height="12" as="geometry" />
        </mxCell>
        <mxCell id="iqy052YHAr-xuEyLwhpA-10" value="lowLevel.c" style="text;html=1;align=center;verticalAlign=middle;whiteSpace=wrap;rounded=0;fontStyle=1" vertex="1" parent="1">
          <mxGeometry x="335" y="396.5" width="80" height="12" as="geometry" />
        </mxCell>
        <mxCell id="iqy052YHAr-xuEyLwhpA-11" value="&lt;i&gt;Says what you need&lt;/i&gt;" style="text;html=1;align=center;verticalAlign=middle;whiteSpace=wrap;rounded=0;fontColor=#666666;" vertex="1" parent="1">
          <mxGeometry x="115" y="279.5" width="140" height="10" as="geometry" />
        </mxCell>
        <mxCell id="iqy052YHAr-xuEyLwhpA-12" value="&lt;span style=&quot;font-size: 7px;&quot;&gt;&lt;font style=&quot;font-size: 7px;&quot;&gt;&quot;I require struct A with pointers to functions x, y, and z&quot;&lt;/font&gt;&lt;/span&gt;" style="text;html=1;align=center;verticalAlign=middle;whiteSpace=wrap;rounded=0;opacity=30;fontSize=7;fontStyle=0;fontColor=#4D4D4D;horizontal=1;fontFamily=Helvetica;labelBorderColor=none;textShadow=1;" vertex="1" parent="1">
          <mxGeometry x="135" y="309.5" width="100" height="30" as="geometry" />
        </mxCell>
        <mxCell id="iqy052YHAr-xuEyLwhpA-13" value="&lt;i&gt;Uses what you need&lt;/i&gt;" style="text;html=1;align=center;verticalAlign=middle;whiteSpace=wrap;rounded=0;fontColor=#666666;" vertex="1" parent="1">
          <mxGeometry x="115" y="408.5" width="140" height="10" as="geometry" />
        </mxCell>
        <mxCell id="iqy052YHAr-xuEyLwhpA-14" value="&lt;font&gt;&quot;I implement function foo which uses x, y, and z&quot;&lt;/font&gt;" style="text;html=1;align=center;verticalAlign=middle;whiteSpace=wrap;rounded=0;opacity=30;fontSize=7;fontStyle=0;fontColor=#4D4D4D;horizontal=1;fontFamily=Helvetica;labelBorderColor=none;textShadow=1;" vertex="1" parent="1">
          <mxGeometry x="145" y="443.5" width="80" height="30" as="geometry" />
        </mxCell>
        <mxCell id="iqy052YHAr-xuEyLwhpA-15" value="&lt;i&gt;Says it has what you need&lt;/i&gt;" style="text;html=1;align=center;verticalAlign=middle;whiteSpace=wrap;rounded=0;fontColor=#666666;" vertex="1" parent="1">
          <mxGeometry x="295" y="280" width="160" height="10" as="geometry" />
        </mxCell>
        <mxCell id="iqy052YHAr-xuEyLwhpA-16" value="&lt;span style=&quot;font-size: 7px;&quot;&gt;&lt;font style=&quot;font-size: 7px;&quot;&gt;&quot;I&#39;ve got a struct A for you, and it&#39;s got pointers to functions x, y, and z&quot;&lt;/font&gt;&lt;/span&gt;" style="text;html=1;align=center;verticalAlign=middle;whiteSpace=wrap;rounded=0;opacity=30;fontSize=7;fontStyle=0;fontColor=#4D4D4D;horizontal=1;fontFamily=Helvetica;labelBorderColor=none;textShadow=1;" vertex="1" parent="1">
          <mxGeometry x="315" y="310" width="120" height="30" as="geometry" />
        </mxCell>
        <mxCell id="iqy052YHAr-xuEyLwhpA-18" value="&lt;p style=&quot;line-height: 80%;&quot;&gt;&lt;i&gt;Explains how it does what you need&lt;/i&gt;&lt;/p&gt;" style="text;html=1;align=center;verticalAlign=middle;whiteSpace=wrap;rounded=0;fontColor=#666666;" vertex="1" parent="1">
          <mxGeometry x="315" y="413.5" width="120" height="8" as="geometry" />
        </mxCell>
        <mxCell id="iqy052YHAr-xuEyLwhpA-19" value="&lt;span style=&quot;font-size: 7px;&quot;&gt;&lt;font style=&quot;font-size: 7px;&quot;&gt;&quot;I implement functions x, y, and z and place pointers to them in a struct A&quot;&lt;/font&gt;&lt;/span&gt;" style="text;html=1;align=center;verticalAlign=middle;whiteSpace=wrap;rounded=0;opacity=30;fontSize=7;fontStyle=0;fontColor=#4D4D4D;horizontal=1;fontFamily=Helvetica;labelBorderColor=none;textShadow=1;" vertex="1" parent="1">
          <mxGeometry x="325" y="443.5" width="100" height="30" as="geometry" />
        </mxCell>
        <mxCell id="iqy052YHAr-xuEyLwhpA-21" value="" style="endArrow=classic;html=1;rounded=0;" edge="1" parent="1">
          <mxGeometry width="50" height="50" relative="1" as="geometry">
            <mxPoint x="292" y="319.6" as="sourcePoint" />
            <mxPoint x="262" y="319.6" as="targetPoint" />
          </mxGeometry>
        </mxCell>
        <mxCell id="iqy052YHAr-xuEyLwhpA-22" value="&lt;font style=&quot;font-size: 8px;&quot; face=&quot;fira code&quot;&gt;#include&lt;/font&gt;" style="text;html=1;align=center;verticalAlign=middle;whiteSpace=wrap;rounded=0;fillColor=none;fontSize=8;opacity=40;rotation=-90;" vertex="1" parent="1">
          <mxGeometry x="254" y="287" width="40" height="10" as="geometry" />
        </mxCell>
        <mxCell id="iqy052YHAr-xuEyLwhpA-23" value="" style="endArrow=classic;html=1;rounded=0;" edge="1" parent="1">
          <mxGeometry width="50" height="50" relative="1" as="geometry">
            <mxPoint x="339.6" y="384" as="sourcePoint" />
            <mxPoint x="339.6" y="354" as="targetPoint" />
          </mxGeometry>
        </mxCell>
        <mxCell id="iqy052YHAr-xuEyLwhpA-24" value="&lt;font style=&quot;font-size: 8px;&quot; face=&quot;fira code&quot;&gt;#include&lt;/font&gt;" style="text;html=1;align=center;verticalAlign=middle;whiteSpace=wrap;rounded=0;fillColor=none;fontSize=8;opacity=40;" vertex="1" parent="1">
          <mxGeometry x="347" y="360" width="38" height="10" as="geometry" />
        </mxCell>
        <mxCell id="iqy052YHAr-xuEyLwhpA-27" value="" style="endArrow=classic;html=1;rounded=0;" edge="1" parent="1">
          <mxGeometry width="50" height="50" relative="1" as="geometry">
            <mxPoint x="148.60000000000002" y="385" as="sourcePoint" />
            <mxPoint x="148.60000000000002" y="355" as="targetPoint" />
          </mxGeometry>
        </mxCell>
        <mxCell id="iqy052YHAr-xuEyLwhpA-28" value="&lt;font style=&quot;font-size: 8px;&quot; face=&quot;fira code&quot;&gt;#include&lt;/font&gt;" style="text;html=1;align=center;verticalAlign=middle;whiteSpace=wrap;rounded=0;fillColor=none;fontSize=8;opacity=40;" vertex="1" parent="1">
          <mxGeometry x="156" y="360" width="40" height="10" as="geometry" />
        </mxCell>
        <mxCell id="iqy052YHAr-xuEyLwhpA-29" value="&lt;font face=&quot;Lucida Console&quot;&gt;ABSTRACT&lt;/font&gt;" style="text;html=1;align=center;verticalAlign=middle;whiteSpace=wrap;rounded=0;rotation=0;" vertex="1" parent="1">
          <mxGeometry x="145" y="228" width="90" height="10" as="geometry" />
        </mxCell>
        <mxCell id="iqy052YHAr-xuEyLwhpA-30" value="&lt;font face=&quot;Lucida Console&quot;&gt;CONCRETE&lt;/font&gt;" style="text;html=1;align=center;verticalAlign=middle;whiteSpace=wrap;rounded=0;rotation=0;" vertex="1" parent="1">
          <mxGeometry x="330" y="228" width="90" height="10" as="geometry" />
        </mxCell>
      </root>
    </mxGraphModel>
  </diagram>
</mxfile>
